 http://img26.imageshack.us/img26/1218/73673713.jpg

Country.......: USA
Genre.........: Animation, Action, Adventure, Fantasy, Sci-Fi
Date release..: 07.06.2011 [World]
Director......: Chris Berkeley, Lauren Montgomery
Writers.......: Alan Burnett, Geoff Johns
Duration......: 84 min.
More..........: http://www.imdb.com/title/tt1683043
Trailer.......: http://www.imdb.com/video/screenplay/vi2011143449
Trailer.......:

Pilot :
As the home planet of the Green Lantern Corps faces a battle with an ancient enemy, Hal Jordan prepares new recruit Arisia for the coming conflict by relating stories of the first Green Lantern and several of Hal's comrades. 

Cats :
Nathan Fillion   	 ...  	Hal Jordan (voice)
Jason Isaacs 	... 	Sinestro (voice)
Elisabeth Moss 	... 	Arisia (voice)
Kelly Hu 	... 	Laira (voice)
Arnold Vosloo 	... 	Abin Sur (voice)
Grey DeLisle 	... 	Ree'Yu (voice)
Steve Blum 	... 	Kloba Vud (voice)
Henry Rollins 	... 	Kilowog (voice)
Roddy Piper 	... 	Bolphunga (voice)
Bruce Thomas 	... 	Atrocitus (voice)
James Arnold Taylor 	... 	Tomar-Re (voice)
Wade Williams 	... 	Deegan (voice)
Gwendoline Yeo 	... 	Blu (voice)
Tony Amendola 	... 	Kentor (voice)
David Kaufman 	... 	Rubyn (voice) 

Data Technical :
!!! SAMPLE !!!
Audio.....: English
Subtitles.: None
Format                           : AVI
Format/Info                      : Audio Video Interleave
File size                        : 699 MiB
Duration                         : 1h 23mn
Overall bit rate                 : 1 168 Kbps
Writing application              : VirtualDubMod 1.5.10.1 (build 2366/release)
Writing library                  : VirtualDubMod build 2366/release
Video
ID                               : 0
Format                           : MPEG-4 Visual
Format profile                   : Advanced Simple@L5
Format settings, BVOP            : Yes
Format settings, QPel            : No
Format settings, GMC             : No warppoints
Format settings, Matrix          : Default (MPEG)
Codec ID                         : XVID
Codec ID/Hint                    : XviD
Duration                         : 1h 23mn
Bit rate                         : 1 031 Kbps
Width                            : 640 pixels
Height                           : 352 pixels
Display aspect ratio             : 16:9
Frame rate                       : 23.976 fps
Color space                      : YUV
Chroma subsampling               : 4:2:0
Bit depth                        : 8 bits
Scan type                        : Progressive
Bits/(Pixel*Frame)               : 0.191
Stream size                      : 617 MiB (88%)
Writing library                  : XviD 1.2.1 (UTC 2008-12-04)
Audio
ID                               : 1
Format                           : MPEG Audio
Format version                   : Version 1
Format profile                   : Layer 3
Mode                             : Joint stereo
Mode extension                   : MS Stereo
Codec ID                         : 55
Codec ID/Hint                    : MP3
Duration                         : 1h 23mn
Bit rate mode                    : Constant
Bit rate                         : 128 Kbps
Channel(s)                       : 2 channels
Sampling rate                    : 48.0 KHz
Stream size                      : 76.6 MiB (11%)
Alignment                        : Aligned on interleaves
Interleave, duration             : 42 ms (1.00 video frame)
Interleave, preload duration     : 504 ms
Writing library                  : LAME3.98r
Encoding settings                : -m j -V 4 -q 2 -lowpass 17 -b 128

Screen : 
http://img42.imageshack.us/img42/7262/greenlanternemeraldkniga.jpg 
http://img864.imageshack.us/img864/7347/greenlanternemeraldknig.jpg 
http://img225.imageshack.us/img225/7347/greenlanternemeraldknig.jpg 
http://img810.imageshack.us/img810/4430/greenlanternemeraldknigu.jpg 
http://img202.imageshack.us/img202/7347/greenlanternemeraldknig.jpg